<svg width="447.0400024414062px" height="122.021240234375px" xmlns="http://www.w3.org/2000/svg" viewBox="26.479998779296892 13.9893798828125 447.0400024414062 122.021240234375" style="background:#596886" preserveAspectRatio="xMidYMid"><defs><filter id="editing-hover" x="-100%" y="-100%" width="300%" height="300%"><feFlood flood-color="#052b4a" result="flood"></feFlood><feComposite operator="in" in2="SourceAlpha" in="flood" result="shadow"></feComposite><feOffset dx="-4" dy="-4" in="SourceGraphic" result="offset-1"></feOffset><feOffset dx="4" dy="4" in="shadow" result="offset-2"></feOffset><feMerge><feMergeNode in="offset-2"></feMergeNode><feMergeNode in="offset-1"></feMergeNode></feMerge></filter></defs><g filter="url(#editing-hover)"><g transform="translate(94.16000059247017, 104.43218803405762)"><path d="M26.11-42.69L26.11-42.69L26.11-42.69Q41.79-42.69 41.79-31.62L41.79-31.62L41.79-31.62Q41.79-25.54 37.89-21.89L37.89-21.89L37.89-21.89Q34.05-18.24 27.33-18.24L27.33-18.24L27.33-18.24Q24.19-18.24 21.76-20.03L21.76-20.03L21.76-20.03Q20.61-20.80 19.84-21.82L19.84-21.82L19.84-21.82Q24.51-21.82 26.98-24.67L26.98-24.67L26.98-24.67Q29.44-27.52 29.44-33.09L29.44-33.09L29.44-33.09Q29.44-38.66 23.94-38.66L23.94-38.66L22.40-38.66L22.40-38.66Q22.02-38.66 21.70-38.59L21.70-38.59L14.34 0L0.45 0L8.32-41.92L8.32-41.92Q15.17-42.56 19.14-42.62L19.14-42.62L19.14-42.62Q23.10-42.69 26.11-42.69ZM68.03-10.82L68.03-10.82L68.03-10.82Q69.63-9.73 69.63-7.33L69.63-7.33L69.63-7.33Q69.63-4.93 68.42-3.39L68.42-3.39L68.42-3.39Q67.20-1.86 65.22-0.83L65.22-0.83L65.22-0.83Q61.12 1.28 56.70 1.28L56.70 1.28L56.70 1.28Q52.29 1.28 49.70 0.32L49.70 0.32L49.70 0.32Q47.10-0.64 45.38-2.43L45.38-2.43L45.38-2.43Q41.98-5.82 41.98-12.03L41.98-12.03L41.98-12.03Q41.98-21.70 47.23-27.58L47.23-27.58L47.23-27.58Q52.86-33.92 62.66-33.92L62.66-33.92L62.66-33.92Q68.74-33.92 71.74-31.36L71.74-31.36L71.74-31.36Q73.98-29.44 73.98-26.30L73.98-26.30L73.98-26.30Q73.98-15.04 54.53-15.04L54.53-15.04L54.53-15.04Q54.27-13.38 54.27-11.97L54.27-11.97L54.27-11.97Q54.27-9.02 55.58-7.90L55.58-7.90L55.58-7.90Q56.90-6.78 59.33-6.78L59.33-6.78L59.33-6.78Q61.76-6.78 64.35-7.90L64.35-7.90L64.35-7.90Q66.94-9.02 68.03-10.82ZM54.98-17.79L54.98-17.79L54.98-17.79Q59.52-17.79 62.14-20.61L62.14-20.61L62.14-20.61Q64.77-23.30 64.77-27.58L64.77-27.58L64.77-27.58Q64.77-29.06 64.22-29.86L64.22-29.86L64.22-29.86Q63.68-30.66 62.59-30.66L62.59-30.66L62.59-30.66Q61.50-30.66 60.58-30.24L60.58-30.24L60.58-30.24Q59.65-29.82 58.69-28.42L58.69-28.42L58.69-28.42Q56.32-25.22 54.98-17.79ZM77.18-6.40L77.18-6.40L77.18-6.40Q77.18-8.13 78.08-12.48L78.08-12.48L81.47-29.76L77.70-29.76L77.95-31.68L77.95-31.68Q85.63-33.98 93.06-39.62L93.06-39.62L96.13-39.62L94.59-32.64L99.58-32.64L99.01-29.76L94.08-29.76L90.82-12.48L90.82-12.48Q89.98-8.51 89.98-7.17L89.98-7.17L89.98-7.17Q89.98-4.10 92.67-3.46L92.67-3.46L92.67-3.46Q92.03-1.28 89.73 0L89.73 0L89.73 0Q87.42 1.28 84.16 1.28L84.16 1.28L84.16 1.28Q80.90 1.28 79.04-0.77L79.04-0.77L79.04-0.77Q77.18-2.82 77.18-6.40ZM100.29-6.40L100.29-6.40L100.29-6.40Q100.29-8.13 101.18-12.48L101.18-12.48L104.58-29.76L100.80-29.76L101.06-31.68L101.06-31.68Q108.74-33.98 116.16-39.62L116.16-39.62L119.23-39.62L117.70-32.64L122.69-32.64L122.11-29.76L117.18-29.76L113.92-12.48L113.92-12.48Q113.09-8.51 113.09-7.17L113.09-7.17L113.09-7.17Q113.09-4.10 115.78-3.46L115.78-3.46L115.78-3.46Q115.14-1.28 112.83 0L112.83 0L112.83 0Q110.53 1.28 107.26 1.28L107.26 1.28L107.26 1.28Q104 1.28 102.14-0.77L102.14-0.77L102.14-0.77Q100.29-2.82 100.29-6.40ZM136.06 1.28L136.06 1.28L136.06 1.28Q121.98 1.28 121.98-11.97L121.98-11.97L121.98-11.97Q121.98-21.38 127.17-27.46L127.17-27.46L127.17-27.46Q132.67-33.92 142.21-33.92L142.21-33.92L142.21-33.92Q149.12-33.92 152.64-30.72L152.64-30.72L152.64-30.72Q156.16-27.52 156.16-20.80L156.16-20.80L156.16-20.80Q156.16-10.56 150.66-4.61L150.66-4.61L150.66-4.61Q145.28 1.28 136.06 1.28ZM137.73-26.56L137.73-26.56L137.73-26.56Q136.96-24.83 136.35-22.24L136.35-22.24L136.35-22.24Q135.74-19.65 134.98-15.55L134.98-15.55L134.98-15.55Q134.21-11.46 134.21-6.40L134.21-6.40L134.21-6.40Q134.21-4.74 134.75-3.65L134.75-3.65L134.75-3.65Q135.30-2.56 136.77-2.56L136.77-2.56L136.77-2.56Q138.24-2.56 139.17-3.26L139.17-3.26L139.17-3.26Q140.10-3.97 140.80-5.63L140.80-5.63L140.80-5.63Q142.08-8.58 143.10-14.05L143.10-14.05L143.10-14.05Q144.13-19.52 144.22-21.89L144.22-21.89L144.22-21.89Q144.32-24.26 144.32-26.02L144.32-26.02L144.32-26.02Q144.32-27.78 143.81-28.93L143.81-28.93L143.81-28.93Q143.30-30.08 141.86-30.08L141.86-30.08L141.86-30.08Q140.42-30.08 139.46-29.18L139.46-29.18L139.46-29.18Q138.50-28.29 137.73-26.56ZM184.90-29.57L184.90-29.57L184.90-29.57Q185.86-31.49 185.86-33.28L185.86-33.28L185.86-33.28Q185.86-35.07 185.66-36.06L185.66-36.06L185.66-36.06Q185.47-37.06 185.02-37.82L185.02-37.82L185.02-37.82Q184.06-39.49 182.14-39.49L182.14-39.49L182.14-39.49Q179.78-39.49 177.86-37.76L177.86-37.76L177.86-37.76Q175.81-35.97 175.81-33.15L175.81-33.15L175.81-33.15Q175.81-31.36 177.06-29.98L177.06-29.98L177.06-29.98Q178.30-28.61 180.22-27.33L180.22-27.33L180.22-27.33Q182.14-26.05 184.32-24.77L184.32-24.77L184.32-24.77Q186.50-23.49 188.42-21.95L188.42-21.95L188.42-21.95Q192.83-18.43 192.83-13.70L192.83-13.70L192.83-13.70Q192.83-10.50 191.14-7.78L191.14-7.78L191.14-7.78Q189.44-5.06 186.62-3.07L186.62-3.07L186.62-3.07Q180.48 1.28 172.35 1.28L172.35 1.28L172.35 1.28Q165.76 1.28 162.37-0.86L162.37-0.86L162.37-0.86Q158.98-3.01 158.98-6.27L158.98-6.27L158.98-6.27Q158.98-12.10 163.52-13.57L163.52-13.57L163.52-13.57Q164.80-14.02 166.75-14.02L166.75-14.02L166.75-14.02Q168.70-14.02 170.94-13.18L170.94-13.18L170.94-13.18Q169.92-10.56 169.92-8.19L169.92-8.19L169.92-8.19Q169.92-3.07 173.57-3.07L173.57-3.07L173.57-3.07Q175.94-3.07 177.89-4.80L177.89-4.80L177.89-4.80Q179.84-6.53 179.84-8.48L179.84-8.48L179.84-8.48Q179.84-10.43 178.59-11.84L178.59-11.84L178.59-11.84Q177.34-13.25 175.49-14.37L175.49-14.37L175.49-14.37Q173.63-15.49 171.49-16.58L171.49-16.58L171.49-16.58Q169.34-17.66 167.49-19.20L167.49-19.20L167.49-19.20Q163.14-22.72 163.14-28.35L163.14-28.35L163.14-28.35Q163.14-32 164.93-34.85L164.93-34.85L164.93-34.85Q166.72-37.70 169.60-39.62L169.60-39.62L169.60-39.62Q175.36-43.52 182.43-43.52L182.43-43.52L182.43-43.52Q189.50-43.52 192.93-41.41L192.93-41.41L192.93-41.41Q196.35-39.30 196.35-35.71L196.35-35.71L196.35-35.71Q196.35-32.58 193.92-30.59L193.92-30.59L193.92-30.59Q191.81-28.93 189.25-28.93L189.25-28.93L189.25-28.93Q186.69-28.93 184.90-29.57ZM229.89-7.10L229.89-7.10L229.89-7.10Q229.89-4.29 232.77-3.46L232.77-3.46L232.77-3.46Q232.06-1.09 229.31 0.19L229.31 0.19L229.31 0.19Q227.01 1.28 224.48 1.28L224.48 1.28L224.48 1.28Q221.95 1.28 220.64 0.61L220.64 0.61L220.64 0.61Q219.33-0.06 218.62-1.15L218.62-1.15L218.62-1.15Q217.47-2.82 217.47-5.95L217.47-5.95L217.47-5.95Q217.47-7.81 218.50-12.93L218.50-12.93L219.39-17.79L219.39-17.79Q220.48-23.36 220.48-25.41L220.48-25.41L220.48-25.41Q220.48-28.99 218.50-28.99L218.50-28.99L218.50-28.99Q216-28.99 214.40-25.34L214.40-25.34L214.40-25.34Q213.76-23.94 213.31-21.82L213.31-21.82L208.96 0L196.10 1.28L205.12-44.80L217.98-46.08L217.47-43.52L217.47-43.52Q215.68-33.66 214.14-30.34L214.14-30.34L214.14-30.34Q217.73-33.92 224.32-33.92L224.32-33.92L224.32-33.92Q231.30-33.92 232.58-29.31L232.58-29.31L232.58-29.31Q233.02-27.84 233.02-26.56L233.02-26.56L233.02-26.56Q233.02-25.28 232.93-24.29L232.93-24.29L232.93-24.29Q232.83-23.30 232.51-21.50L232.51-21.50L231.68-16.90L230.21-9.66L230.21-9.66Q229.89-8.19 229.89-7.10ZM251.90 1.28L251.90 1.28L251.90 1.28Q237.82 1.28 237.82-11.97L237.82-11.97L237.82-11.97Q237.82-21.38 243.01-27.46L243.01-27.46L243.01-27.46Q248.51-33.92 258.05-33.92L258.05-33.92L258.05-33.92Q264.96-33.92 268.48-30.72L268.48-30.72L268.48-30.72Q272-27.52 272-20.80L272-20.80L272-20.80Q272-10.56 266.50-4.61L266.50-4.61L266.50-4.61Q261.12 1.28 251.90 1.28ZM253.57-26.56L253.57-26.56L253.57-26.56Q252.80-24.83 252.19-22.24L252.19-22.24L252.19-22.24Q251.58-19.65 250.82-15.55L250.82-15.55L250.82-15.55Q250.05-11.46 250.05-6.40L250.05-6.40L250.05-6.40Q250.05-4.74 250.59-3.65L250.59-3.65L250.59-3.65Q251.14-2.56 252.61-2.56L252.61-2.56L252.61-2.56Q254.08-2.56 255.01-3.26L255.01-3.26L255.01-3.26Q255.94-3.97 256.64-5.63L256.64-5.63L256.64-5.63Q257.92-8.58 258.94-14.05L258.94-14.05L258.94-14.05Q259.97-19.52 260.06-21.89L260.06-21.89L260.06-21.89Q260.16-24.26 260.16-26.02L260.16-26.02L260.16-26.02Q260.16-27.78 259.65-28.93L259.65-28.93L259.65-28.93Q259.14-30.08 257.70-30.08L257.70-30.08L257.70-30.08Q256.26-30.08 255.30-29.18L255.30-29.18L255.30-29.18Q254.34-28.29 253.57-26.56ZM305.60-4.38L305.60-4.38L305.60-4.38Q302.91-1.66 299.23-0.19L299.23-0.19L299.23-0.19Q295.55 1.28 291.90 1.28L291.90 1.28L291.90 1.28Q288.26 1.28 286.98 0.64L286.98 0.64L284.99 11.52L272 12.80L280.83-32.64L291.26-33.73L290.43-29.31L290.43-29.31Q293.12-33.86 298.69-33.86L298.69-33.86L298.69-33.86Q304.96-33.86 308.29-29.82L308.29-29.82L308.29-29.82Q311.23-26.18 311.23-20.61L311.23-20.61L311.23-20.61Q311.23-15.04 309.76-11.07L309.76-11.07L309.76-11.07Q308.29-7.10 305.60-4.38ZM291.14-22.34L287.74-3.58L287.74-3.58Q289.09-2.43 290.75-2.43L290.75-2.43L290.75-2.43Q292.42-2.43 293.38-3.07L293.38-3.07L293.38-3.07Q294.34-3.71 295.04-4.99L295.04-4.99L295.04-4.99Q296.96-8.45 298.50-18.94L298.50-18.94L298.50-18.94Q298.94-22.02 298.94-25.02L298.94-25.02L298.94-25.02Q298.94-28.03 298.27-28.99L298.27-28.99L298.27-28.99Q297.60-29.95 296.32-29.95L296.32-29.95L296.32-29.95Q292.42-29.95 291.14-22.34L291.14-22.34Z" fill="#ffd5af"></path></g></g><style>text {
  font-size: 64px;
  font-family: Arial Black;
  dominant-baseline: central;
  text-anchor: middle;
}</style></svg>